<svg xmlns="http://www.w3.org/2000/svg" viewBox="0 0 828.2 90.6" xml:space="preserve"><path fill="#FFF" d="M61.1 49.8c0 14.6-4.1 25.2-12.3 31.9-7.3 5.8-18.1 8.7-32.5 8.7H0V74.7h16.3c9.7 0 16.9-1.5 21.4-4.6 5.6-3.9 8.4-10.6 8.4-20.3V0H61v49.8zM299.4 90.5h-14.9V0h14.9v90.5zM395.5 90.5h-37.2c-12.5 0-22.8-4.4-30.9-13.1-8.2-8.7-12.2-19.8-12.2-33.1 0-13.2 4-23.9 12.1-32.1 8.1-8.1 18.4-12.2 31-12.2h37.2v15.8h-37.2c-8.2 0-14.9 2.8-20.3 8.3-5.3 5.6-8 12.7-8 21.5 0 8.7 2.7 15.7 8 21.1 5.3 5.4 12.1 8.1 20.3 8.1h37.2v15.7zM506.7 44.2c0 13.3-4.1 24.4-12.2 33.1-8.1 8.7-18.4 13.1-31 13.1h-12.7c-12.5 0-22.8-4.4-30.9-13.1-8.2-8.7-12.2-19.8-12.2-33.1 0-13.2 4-23.9 12.1-32.1 8.1-8.1 18.4-12.2 31-12.2h12.7c12.7 0 23.1 4.1 31.1 12.2 8.1 8.2 12.1 18.9 12.1 32.1zm-14.8 1.4c0-8.7-2.7-15.9-8-21.5s-12.1-8.3-20.4-8.3h-12.7c-8.2 0-14.9 2.8-20.3 8.3-5.3 5.6-8 12.7-8 21.5 0 8.7 2.7 15.7 8 21.1 5.3 5.4 12.1 8.1 20.3 8.1h12.7c8.3 0 15.1-2.7 20.4-8.1 5.4-5.5 8-12.5 8-21.1zM82.1 90.5h74.1V74.7H97.1V52.5h47.7V36.7H97.1V15.8h59.1V0H82.1zM239.3 59.4c7.9-1.3 13.7-4.7 17.5-9.1 5-5.8 7-12.6 7-19.4 0-10-4.8-18.9-11.6-24-5.9-4.5-13.8-6.8-23.4-6.8h-53.9v90.3h14.8V61.1h30.1L244 90.4h21.3l-26-31zm-49.6-13.7V15.6h41.2c11.9 0 17.8 5.1 17.8 15.2 0 5-1.9 8.8-5.6 11.5-3.3 2.3-7.4 3.4-12.2 3.4h-41.2z"/><g fill="#DDDB04"><path d="M632.9 36.7c.7.3.8.3 1.3.6 1 .6 1.4 1.2 1.7 1.6 1 1.5 2.5 2.4 3.8.7 1.2-1.6-.3-4-2-4.1-.8-.1-7.1-.1-4.8 1.2zM646.2 65.3zM636.5 70.2c0-.1 0-.1 0 0 0-.1 0-.1 0 0zM639.8 73.7zM648.7 65.6h-.1v.1l.1-.1c0 .1 0 .1 0 0zM642.4 66.2zM642.1 66.4zM637.5 68.6s-.1 0 0 0c-.1 0-.1 0 0 0-.1 0-.1 0 0 0-.1 0 0 0 0 0zM636.5 68.9zM644.9 82.8c-.1 0-.1 0 0 0-.1 0-.1 0 0 0zM645.5 85.1zM645.9 85.1c0 .1 0 .1 0 0zM642.3 66h.1l.1-.1c-.1.1-.2.1-.2.1zM653.6 85.6c-.1 0-.1 0 0 0 0 0 0 .1.1.1.1-.1.3-.2.4-.3-.2.1-.4.2-.5.2zM643.6 73.4v.1-.1zM642 66.4c0-.1 0-.1 0 0-.1 0-.1 0 0 0l-.1.1c0-.1 0-.1.1-.1-.1 0-.1 0 0 0zM638.4 68.2c0-.1 0-.1 0 0zM646.3 65.4c0-.1 0-.1 0 0 0-.1 0 0 0 0zM648.4 65.6v.1zM645.9 65.5s.1.1 0 0c.1.1.1.1 0 0 .1.1.1.1 0 0l.1.1-.1-.1zM646.8 82.6s.1 0 .1.1l-.9-1.2s-.1.1-.1.2 0 .1-.1.1h-.1s-.1 0-.1.1c.1.1.1.1.1.2v.1c0 .1 0 .2.1.2.1.1.1.1.2.1 0 0 .1 0 .1.1 0-.1.2-.1.3-.1h.1l.3.1c-.1 0 0 0 0 0zM642.1 66.5zM644.6 83.6zM642 66.3zM646.1 82.8c-.1 0-.1 0 0 0-.2-.1-.2-.1-.3-.1h-.3s-.1 0-.1.1H645.7s.1 0 .1.1h.1c.1 0 .2 0 .2-.1zM635.5 74.3s.1 0 0 0l.1.1c0-.1 0-.2.1-.2h-.1c.1 0 0 0-.1.1zM643 83.5c0 .1.1.1 0 0 .1.1.1.1 0 0zM641.8 70.7h.1-.1zM639 68.4H639.3 639c0-.1 0-.1 0 0 0-.1 0-.1 0 0zM642.2 71.3s.1 0 0 0-.1-.1-.2-.1c-.1-.1-.1-.1-.3 0h.2c.1 0 .1 0 .1.1l.1.1c0-.1.1-.1.1-.1zM645.4 65.5c0 .1 0 .1 0 0 0 .1 0 .1 0 0 0 .1 0 .1 0 0 0 .1 0 .1 0 0 0 .1 0 0 0 0zM638.9 68.3zM646.3 82.8c0-.1 0-.1 0 0 0-.1 0-.1 0 0zM645.8 65.4c.1 0 .1 0 0 0 .1 0 0 0 0 0zM639.5 68.2h-.1c0 .1 0 .1.1 0 .1 0 .1 0 0 0 .1 0 .1 0 0 0zM642.5 66.2c0-.1 0-.1 0 0zM631.5 74.3s-.1 0-.2.1c.1-.1.1-.1.2-.1zM633.2 73.2zM632.5 81.8zM633.1 73.3c0-.1 0-.1 0 0 0-.1 0-.1 0 0 0-.1 0 0 0 0zM630.9 72.6zM636.2 81.1zM645.3 85.4z"/><path d="M653 85.9s-.1-.1-.2 0h-.5c-.2.1-.2.1-.5 0-.2-.1-.4 0-.6.1-.1 0-.1.1-.2.1-.2.1-.5-.1-.6-.1H650.1c-.2 0-.3 0-.3-.1h-.2v.2c0 .1 0 .1-.1.2s-.3 0-.4 0h.1-.1c0-.1 0-.2.1-.2h.1s-.1 0-.1.1-.1.1-.2.1-.1-.1-.2-.2c0 0 0-.1-.1-.1h-.1c-.1 0-.1 0-.2.1 0 .1-.1.1-.1.1-.1 0-.1.1-.2 0h-.4c-.1-.1-.2-.1-.2-.2v-.1l-.1-.1s-.1 0-.1-.1-.1-.1-.2-.2h-.2v.2c0 .1-.1.1-.2.1h-.5c-.1 0-.1-.1-.1-.1v-.1h-.1c-.1 0-.1-.1-.1-.1v-.1s-.1 0-.1.1h-.2l-.1-.1h-.2V85s0-.1.1-.2V84.5s-.1 0-.1-.1l-.1-.1h-.1c-.1-.1-.1-.1-.1-.2h.1-.1V84s-.1 0-.1-.1c-.1 0-.1 0-.1-.1s.1-.1.2-.2c.2 0 .2.1.2.1 0 .1 0 .1-.1.2.1 0 .1.1.1.2 0-.1-.1-.1 0-.2h.1c-.1 0-.1-.1 0-.2v-.1H645v-.2s0-.1.1-.1v-.1h.1-.2c-.1 0-.1-.1-.1-.1l-.1-.1h-.2v.1h-.1l-.1-.1v-.1h-.2l.1.1s0 .1.1.1l.1.1v.1h-.1s-.1 0-.1-.1v.2h-.1l-.1-.1v.1h-.1c-.1 0-.1-.1-.1-.2s-.1-.1-.1-.2l-.1-.1v.2c0 .1.1.3.2.3s.1.1.1.2 0 .1.1.2.1.2.2.2c.1.1.1.1.1.2s.1.1.1.2l.1.1v.1h-.2s0-.1-.1-.1v-.1s-.1 0-.1-.1l-.1-.1c0 .1 0 .1-.1.2 0 .1-.1.1-.1.1-.1 0-.1-.2-.1-.2h-.1s0 .1.1.1.1.1.1.2c0 0 0 .1-.1.1l-.1.1h-.1v.4h-.2l-.1-.1V85v.1l-.1.1s-.1 0-.1-.1-.1-.2 0-.2v-.1.1h-.1c-.1 0-.1-.1-.2-.1-.1-.1 0-.3.1-.3-.1 0-.1-.1-.2-.1v-.2s0-.1.1-.1c-.1 0-.1-.1-.1-.2v-.2h.1l-.1-.1s0-.1-.1-.1v-.2.1h-.1l-.1-.1v-.2h-.1l-.1-.1c-.1-.1-.1-.2-.1-.3v-.2c0-.1.1-.2.1-.3V82l-.1-.1-.1-.1-.2-.2v-.1l-.2-.2c0-.1-.1-.1-.2-.1s-.1 0-.1-.1h-.2V81l-.1-.1c-.1 0-.1 0-.1-.1s-.1-.1-.1-.1-.1 0-.1-.1c-.1-.1-.1-.2-.1-.2-.1-.1-.1-.2-.1-.4 0 0 0-.1-.1-.1l-.1-.1-.1.1c0 .1-.1.1-.1.1s-.1 0-.1-.1c-.1-.1-.1-.2-.1-.3v-.1s-.1 0-.3.1H639.3l.1.1V80c0 .2.1.3.2.4 0 0 .1 0 .1.1 0 0 .1 0 .1.1.1.1.1.1.2.5 0 .3.2.4.3.5.1 0 .1.1.1.1l.1.1H640.8c.1 0 .1 0 .1.1s0 .2-.1.2l.1.1.1.1c.1 0 .1.1.2.1.1.1.4.3.4.3.1 0 .1.1.1.1l.1.1c.1 0 .1.1 0 .2 0 .1-.1.1-.1.1h-.1s-.1 0-.1-.2c0-.1 0-.1-.1-.1s-.1 0-.1-.1l-.1-.1h-.1c-.1 0-.2.1-.2.1v.2s.2.1.2.3c0 .1 0 .2-.1.3-.1.1-.2.1-.2 0l-.1.1c0 .1-.1.1-.2.2v.1c0 .1-.1.2-.2.2s-.1 0-.1-.1V83.8c0-.1.1-.2.2-.3v-.1l-.1-.2c0-.1 0-.1-.1-.1s-.2-.1-.2-.1-.1-.1-.1-.2v-.1c-.1 0-.2-.1-.3-.3-.1-.2-.2-.2-.2-.2h-.1c-.1 0-.2-.1-.3-.2-.1-.1-.2-.3-.3-.4l-.2-.2c-.1 0-.1-.1-.1-.1s0-.1-.1-.1-.1-.1-.1-.1c-.1-.1-.1-.1-.1-.2v-.4c0-.1 0-.1-.1-.1s-.2-.1-.3-.2l-.1-.1c-.1 0-.1 0-.2.1-.2.2-.4.2-.5.2h-.1c-.1 0-.2.1-.3.2-.1.1-.2.1-.3.1-.2 0-.3-.1-.3-.2l-.1-.1h-.1c-.1 0-.1-.1-.2-.1h-.2c-.1.1-.2.1-.3.1h-.1l-.1.1v.4h-.1v.1c0 .1-.1.2-.1.2-.1.1-.7.3-.9.3-.1 0-.6.3-.9.7-.1.1-.1.2 0 .3.1.1.1.2.1.2s0 .1-.1.1-.4.3-.4.4v.1l-.1.1h-.1c-.1 0-.3.1-.4.3-.1.1-.1.2-.2.2h-.2c-.1 0-.3 0-.5-.1h-.7c-.1 0-.1 0-.1.1 0 0-.1.1-.2.1h-.1c-.2 0-.3-.3-.4-.5 0-.1-.1-.1-.1-.2s-.1-.1-.2-.1h-.5c-.1 0-.1 0-.2-.1 0 0-.1-.1-.2 0h-.1v-.2l.1-.1c.1-.1.1-.4.2-.5h-.1s-.1 0-.1-.2c0 0-.1 0-.1-.1s0-.2.2-.5c.2-.2.3-.5.3-.7v-.5l-.1.1.2-.3s0-.1-.1-.2v-.1c-.1-.2-.1-.3 0-.3 0-.1.1-.1.3-.1h.2c0-.1.1-.1.1-.1.1-.1.2 0 .3.1 0 0 .2.1.4.1h.4c.1 0 .2.1.3.1 0 0 .2.1.5.1H631.4s.1 0 .2.1c0 0 .1 0 .1.1h.2c.1 0 .3.1.5.1h.1c.1-.1.1-.3.1-.3.1-.2.1-.3.2-.3v-.5c-.1-.1 0-.1 0-.2v-.1c-.1 0-.2-.2-.3-.3 0 0 0-.1-.1-.1-.1-.1 0-.2 0-.3-.1 0-.2 0-.2-.1l-.1-.1c-.1 0-.1 0-.2-.1l-.1-.1c-.1 0-.1-.1-.2-.1H631.3c-.1 0-.1-.1-.1-.2 0 0-.1 0-.1-.1V77l.1-.1h.7s.1 0 .1.1.1.1.1.1H632.4s.1 0 .1.1h.1V76.9c0-.1-.1-.1-.1-.2v-.1h.4c.1 0 .1.1.1.2v.1h.1s.1 0 .1.1h.2s0-.1.1-.1.2-.1.5-.1c.2 0 .3-.1.3-.3 0-.1 0-.2.1-.2h.4c.1 0 .1 0 .2-.1h1-.1c-.1 0-.1-.1-.1-.1 0-.1.1-.1.1-.1.1 0 .1-.1.2-.2 0-.1.1-.1.1-.2h.2s.1 0 .1.1c0 0 0-.1.1-.1.1-.1.1-.2.2-.1 0 0 .1 0 .1.1h.4c.1 0 .1 0 .1.1v-.2c0-.1.1 0 .2 0h.2c.1 0 .1.1.1.1v.1l.1.1v-.2H638.3l-.1-.1v-.1c0-.1.1-.1.1-.1v-.7s-.1-.1-.1-.3c0-.2 0-.2.1-.3 0 0 .1-.1.1-.2.1-.3.3-.3.5-.3h.3s.1-.1.3-.1c.1 0 .1-.1.2-.1h.1v.2c0 .1-.1.2-.2.3-.1 0-.1.1-.1.1v.2h.4v.2c-.1.1-.1.1-.2.1v-.1.1h-.1l-.2.2h-.2v.1s0 .1-.1.1v.2h.1c.1 0 .1.1.1.1s0 .1-.1.1c0 0 .1 0 .2.1h.2s0 .1-.1.2h.6c.1-.1.1-.1.3-.1.1 0 .1.1.2.1 0 .1 0 .1.1.1h.1v.1-.1c.1 0 .1.1.1.2s.1.1.1.1l.1.1h.1v-.1c.1-.1.3-.1.4-.1h.2c0-.1.1-.1.4-.2.4-.1.5-.1.7-.1h.1c.1 0 .2 0 .2.1V75.9s.1.1.2.1h.3V75.7h.2c.1 0 .1 0 .2.1.1 0 .1.1.2.1h.1v-.8c0-.2.1-.3.2-.4 0 0 .1-.1.1-.2.1-.2.2-.2.3-.2V74c0-.1 0-.1.1-.2.1-.3.2-.7.3-1-.1 0-.1 0-.2-.1l-.2-.1V72.3s.1 0 .1-.1c0 0 0-.1.1-.1V72h-.1c-.1-.1 0-.1 0-.2v-.1c-.1-.1-.1-.1-.1-.2v-.2c.1 0 .1 0 .2-.1l.1-.1h.2c.1 0 .4-.1.5-.2.1-.1.2-.2.3-.1.2-.3.4-.5.6-.8v-.1c-.2-.2-.3-.1-.3-.1l-.1.1c-.1 0-.2-.1-.3-.1 0 .1-.1.1-.1.1-.1 0-.1 0-.2-.1l-.1.1h-.1c0 .1 0 .1-.1.1l-.1.1.1.1c0 .1.1.1 0 .2 0 .1-.1 0-.2 0-.1.2-.5.3-.6.3h-.1c-.1.1-.1.1-.2.1h-.2c0 .1-.1.1-.3.1h-.2l-.1.1c-.1.1-.2.1-.3.1 0 0 0 .1-.1.1 0 0-.1 0-.1-.1 0 0 0 .1.1.1 0 .1 0 .2-.1.2v.2H642.9v.7s0-.1.1-.1v.1c0 .1 0 .1.2.3.1.1.2.2.1.3 0 0-.1 0-.1.1v.1c0 .1-.1.1-.1.1h-.2c-.1 0-.1.1-.2.1 0 0-.1 0-.1-.1-.1 0-.1.1-.2.1h-.4s.1 0 .1.1h-.1.1v.2c0 .1-.1.1-.2.1v.1c0 .1.1.2 0 .2-.1.1-.1.1-.2.3l-.1.2c-.1.2-.2.3-.4.2-.1 0-.1 0-.2-.1h-.1c-.1 0-.1 0-.2.1h-.1s.1.1 0 .2c-.1 0-.1.1-.2.1s-.1 0-.1-.1h-.4c-.1 0-.1 0-.2-.1v-.2l-.1.1v.1l-.1.1c0 .1-.1.1-.2.1s-.1-.1-.1-.1h-.1s-.1-.2-.1-.3c0-.1.1-.1.1-.1 0-.1.1-.1.1-.1.1-.1.1 0 .2 0v-.1H639.7c0-.1.1-.1.1-.1h.1s-.1-.1-.2-.1l-.1-.1c-.1 0-.1-.1 0-.2l-.1-.1V73.4l-.1-.1v-.2c-.1 0-.1-.1-.1-.1-.1-.1 0-.2 0-.3-.1 0-.1-.1-.1-.2V72.2v.1c0 .1 0 .2-.1.2-.1.1-.3.1-.3.1s-.1 0-.2.1-.3.2-.4.2c-.1 0-.2 0-.3.1h-.4s-.1 0-.2-.1l-.1-.1h-.1c-.1 0-.1-.1-.1-.1s0-.1-.1-.1-.1-.1-.1-.1v-.1c-.1-.1 0-.2 0-.2s0-.1.1-.1h.2-.2c0 .1-.1.1-.1.1V71.9c-.1-.1 0-.1 0-.2h-.1v-.1c0-.1 0-.1.1-.1 0 0-.1 0-.1-.1v-.1s-.1 0-.1-.1v-.1l.1-.1v-.1h.1v-.2h.1s.1 0 .1-.1h.1c0-.1.1-.1.1-.1s.1 0 .1.1v.1-.1c0-.1 0-.1.1-.1h.2v-.2h.2c0-.1.1-.1.1-.1h.2v.1h.1s-.1-.1 0-.1h.1v-.1l.1.1V70l.1.2h.2l-.1.1h-.2c0 .1 0 .1-.1.1v.1-.2h.1v-.1h.2s.1 0 .1-.1h.1l.1-.1h.1s.1 0 .1-.1h.2v-.1h.5c.1 0 .1 0 .1-.1v-.1l.1-.1v-.1h.2v-.1c0-.1.1-.1.1-.1V69h.1v-.1l.1.1h.1v-.1H640.9v-.1h.1s0-.1.1-.1h.1v-.1h.2l.1-.1h.2s0-.1.1-.1h-.1s-.1.1-.1 0h-.4c-.1 0-.1-.1-.1-.1v-.1s.1-.1.2-.1v.1-.1h.2-.4s-.1 0-.1-.1c0 0 0-.1.1-.1h.2c.1 0 .2 0 .2.1s0 .1-.1.1c.1 0 .1-.1.1-.1 0-.1.1-.1.1-.2h.2s.1 0 .1.1v.1s0 .1-.1.1l-.1.1H642v.1c0 .1-.1.2-.1.2s0-.1.1-.1h.2-.1c-.1 0-.1 0-.1-.1v-.2c0-.1.2-.2.3-.1h.3v.1s0 .1-.1.1v-.1h.2l.1.1.1-.1c.1 0 .1.1.1.1V68h-.2c-.1 0-.1-.1-.1-.2v-.1h.2s.1 0 .1.1v.1H643.3c.1 0 .1.1.1.1s.1-.1.1 0h.1l.1-.1v-.1s0-.1.1 0h.1v-.1h.4s.1 0 .1.1v.2h.1s0-.1.1-.1h.2c.1 0 .1.1 0 .1v-.2h.4v-.1h.5v.2c0 .1-.1.1-.2.1h-.1c-.1 0-.2.1-.2.2l.1-.1c.1-.1.2-.1.2-.1.1 0 .1 0 .1-.1l.1-.1.1-.1h.1c.1 0 .1.1.1.1V68.1h.1c0-.1.1-.1.2-.1h.1v-.1s.1 0 .1.1H646.8s.1 0 .1.1v.1c.1 0 .1-.1.1-.1s.1 0 .1.1l.1.1c.3-.2.5-.3.8-.5-1.5-1-7.7-.3-12.8 1.4-7.5 2.6-23.6 3.2-25.3-10.3-1.4-9.6 7.5-18.2 16.2-14.7 4.6 1.9 5.5 1.2 5.7.5.7-3.7-5-5.2-9.6-5.2-6-.3-13.4 4.5-15.2 7.7 1.3-15.5 16.8-29.4 34-25.4 2.1.6 4.5 1.5 5 1.8.4.2.8.5 1 .2.2-.3.2-.7-.1-.9-2.6-2.1-8.4-3.5-11.3-3.5-28.6-1.9-50 33-32.1 57.5 15.4 15.8 39.1 16.1 49.7 9.1-.1 0-.1 0-.2-.1zm-9.6-15c.2-.1.2-.1.3 0v.1c0 .1-.1.1-.2.1h-.1c-.1 0-.1-.1 0-.2-.1.1-.1 0 0 0zm-.9 1.4c.1 0 .2-.1.3-.1h.1c.1.1 0 .1 0 .2v.1c0 .1-.1.2-.2.3h-.1c-.1 0-.1-.1-.1-.1-.3-.2-.2-.3 0-.4zm-1 .3.2-.2v.1l-.1.1c0 .1-.1.3-.2.3v-.1c-.1.1-.1-.1.1-.2zm-1.1.8c.1 0 .1-.1.1-.1s.1 0 .1.1c.1.1.1.1.1.2v.1h-.1s-.1 0-.2-.1c0 0-.1 0 0-.2 0 .1 0 0 0 0zm-.8.3c.1-.1.1-.1.2-.1s.1 0 .1.1v.1c0 .1-.1.1-.1.1h-.1c-.1 0-.1-.1-.1-.2zm-1.1-.4c-.1 0-.2 0-.2-.1l-.2-.2v-.1c0-.1.1-.1.2-.1.2 0 .3.1.3.2.1.1.1.1.1.2l-.1.1h-.1zm.3 0c.1 0 .1 0 0 0 .2 0 .2.1.3.2v.1h-.2c-.1 0-.2-.1-.1-.2-.2-.1 0-.1 0-.1zm-5.8-4.1V69h.1c.1 0 .1.1.2.2v.2c0 .1-.1.1-.2.1 0 0-.1 0-.1-.1v-.1s-.1 0-.1-.1c0 .1 0 0 .1 0zm-1 .6c0-.1 0-.1.1-.1h.1c.1 0 .1.1.1.1s.1.1 0 .1h-.2c-.2.1-.2 0-.1-.1zm-1.4.6c0-.1.1-.1.2-.2h.1c0-.1.1-.1.1-.1l.1-.1c.1-.1.1-.1.3-.1.1 0 .2 0 .2.1h.5s.1 0 .1.1-.1.1-.2.2c0 0-.1 0-.1.1 0 0-.1.1-.2.1s-.1 0-.2.1v.1h.5c.1 0 .2.1.3.1h.2c.1 0 .2.1.2.1s0 .1-.1.1v.1s0 .1-.1.1c-.1.1-.3.3-.4.3l.1.1c.1 0 .2.1.3.2h.1c.1.1.2.3.2.4v.1s0 .1.1.1c0 .1 0 .1.1.1h.1c.1 0 .2.2.3.4 0 .1 0 .1.1.1l.1.1v.1c.1 0 .2.1.1.2 0 .1-.1.1-.1.1s-.1 0-.1.1h.6c.1 0 .1 0 .1.1.1.1 0 .4-.1.5-.1.1-.2.1-.2.1h-.1c0 .1-.1.1-.1.1l.1.1h.2c.1 0 .1.1.1.1 0 .1-.1.1-.1.1-.1 0-.2.1-.5.1h-.4c-.2 0-.3-.1-.4-.1h-.7c-.1 0-.1 0-.2-.1h-.1c-.2 0-.2.1-.2.1v.1c0 .1-.1 0-.2 0s-.1 0-.2-.1c-.1 0-.1 0-.2-.1-.1 0-.1 0-.2.1l-.1.1h-.1c-.1 0-.2-.1-.2-.1v-.1s.1 0 .2-.1c.1 0 .4-.2.5-.3l.1-.1c.1-.1.2-.1.4 0-.1 0-.1-.1-.1-.1h-.1s-.1 0-.1-.2v-.1.1h-.1s-.1.1-.1 0c-.1 0-.1-.1-.1-.1v-.1l.1-.1c.1 0 .4-.1.4-.1.1 0 .1 0 0-.1v-.2H631.1l.1-.1s.1-.1.2-.1v-.1s.1-.1.1 0c0 0 .1 0 .1.1 0 0 .1 0 .2.1H632.1v-.4h-.1c-.1 0-.2-.2-.2-.3 0-.1 0-.2.1-.2h-.5s-.1 0-.1-.1l-.1.1s-.1 0-.1-.1 0-.2.1-.3c.1 0 .1-.1.1-.1v-.1s-.1-.1 0-.1c0 0-.1 0-.1-.1 0 0 0 .1.1.1 0 0 .1 0 .1.1s-.1.1-.1.2H631v-.1c0-.1 0-.1.1-.2v-.1c0-.1.1-.2.1-.2v-.2s-.1 0-.1.1c0 0-.1 0-.1.1v.2l-.1.1h-.1s-.1 0-.1-.1v-.1h.2-.1c-.1 0-.1-.1-.1-.1 0-.1.1-.1.1-.2.1 0 .1-.1.2-.1v-.1h-.2c-.1 0-.1 0-.1-.1l-.1-.1h.1c0-.1.1-.1.1-.1s.1 0 .1.1v.1c-.3 0-.3-.1-.3-.2 0 .1 0 .1 0 0zm.3 2.1s.1-.1.1 0c0 0 .1 0 .1.1s-.1.1-.1.2h-.1s-.1 0-.1-.1.1-.2.1-.2zm-1.1-2.2c0-.1.1-.1.1-.1h.1V70h.1c.1 0 .1-.1.1-.1.1-.1.1-.1.2-.1h.1c0 .1 0 .2-.1.3l-.1.1h-.2v.1c0 .1-.1.1-.2.1 0 0-.1 0-.1-.1 0 .1 0 .1 0 0zm-1.9 2.9H628.2s.1-.1.2-.1V73s0-.1.1-.1c-.1 0-.2-.1-.3-.2v-.1h.1c-.1 0-.1-.1-.1-.1s0-.1.1-.1c0 0 .1 0 .1-.1s.2-.1.2-.1h.2s.1 0 .1.1h.1s-.1 0-.1-.1c-.1 0-.1-.1-.1-.1s0-.1.1-.1h.2c0-.1.2-.1.3-.1h.4c0-.1.1-.1.1-.1h.1s.1 0 .1.1h.2c.1 0 .2.1.3.2v.2s.1 0 .1.1v.2l-.1.1c-.1 0-.1 0-.2.1h-.1c.1.1 0 .2 0 .3V73.4l-.1.1-.1.1c0 .1-.1.1-.1.1s-.1 0-.1-.1h-.4c-.1 0-.3.1-.5.1h-.4c-.1 0-.2-.1-.2-.1s-.1 0-.1-.1l-.1-.1s0-.1.1-.1c-.3.1-.4.1-.4-.1 0 .1 0 0 0 0zm-7.2 6c0 .1-.1.1-.2.2 0 0-.1 0-.1.1h-.2c-.1 0-.1-.1-.1-.2v-.1c.1-.1.1-.1.3-.1h.2c.1 0 .1 0 .1.1zm2.2 4.9s-.1-.1 0 0c-.1-.1-.1-.2-.1-.2 0-.1.1-.1.1-.1h.1s.1 0 .1.1v.1s-.1.1-.2.1zm.4 2.7c0 .1 0 .2-.2.2h-.1c-.1 0-.1-.1-.1-.1 0-.1.1-.1.1-.1.1-.1.1-.1.2-.1h.1v.1zm.1-3s-.1 0 0 0l-.1.1h-.1v-.1c0-.1 0-.1.2 0 0-.1 0-.1 0 0zm1 2.4c0 .1-.1.1-.2.2h-.1c-.1 0-.1.1-.1.1v.1c0 .1-.2.2-.3.2h-.1v-.1s0-.1.1-.2.1-.1.1-.2.1-.2.2-.3c0 0 .2-.1.3-.1 0 .2.1.3.1.3zm8.2-4.3s-.1 0 0 0h-.1l-.1-.1s0-.1.1-.1h.1s.1 0 .1.1c-.1 0-.1.1-.1.1zm.9-.1-.1.1c-.1 0-.2-.2-.2-.2h-.2v-.2c0-.1.1-.1.2-.1h.2c.1 0 .1.1.1.1v.1c.1 0 .1.1 0 .2zm3.2.3c0 .1-.1.2-.2.2 0 0-.1 0-.1.1 0 0-.1.1-.2.1h-.1c-.1 0-.2-.1-.2-.1 0-.1-.1-.2 0-.4.2-.3.1-.4 0-.5v-.1c0-.1-.1-.2 0-.2 0 0 .1-.1.2 0h.2s.1-.1.2-.1.2.1.2.2c.1.4 0 .6 0 .8zm.1-1.9c0 .1-.1.2-.1.3v.2c0 .1 0 .2-.1.2l-.1.1s-.1 0-.1-.2v-.1c0-.2-.1-.3 0-.4 0-.1.1-.1.3-.1 0 0 .1-.1.2-.1-.1 0-.1 0-.1.1zm1.9 4.5h-.2v-.1s.1-.1.1 0c0 0 .1 0 .1.1 0-.1 0-.1 0 0zm.5-1.2-.1.1v.1c0 .1.1.3-.1.4h-.1c-.1 0-.2-.1-.3-.2-.1-.1-.4-.3-.5-.4-.1 0-.3-.2-.3-.4 0-.1 0-.1.1-.1h.4s.1 0 .1.1c0 0 .2.1.4.1h.7v.1c-.2.1-.3.2-.3.2zm2.7.4h-.2c-.1 0-.1-.1-.1-.1s0-.1.2-.1h.1c.1 0 .1 0 .1.1 0 0 0 .1-.1.1zm2.2-.8c0-.1.1-.1 0 0 .1-.1.1-.1.2-.1 0 0 .1 0 .1.1v.1h-.1c-.1 0-.1 0-.2-.1zm0 1.6.1-.1s.1 0 .1.1 0 .1-.1.2c0 0-.1 0-.1-.1-.1 0-.1 0 0-.1zm.2 1.4-.1.1H643.5c-.1 0-.1-.1-.1-.1s-.1 0-.1-.1l-.1-.1h-.2s-.1 0-.1-.1 0-.1.1-.2v-.2h.4l.1.1s0 .1.1.1H643.9c.1 0 .1 0 .1.1 0 0 0 .1.1.1h.1s.1 0 .1.1h.2c-.1 0-.1.1-.2.2zm.3-2-.1.1h-.1v-.1l.1-.1h.1v.1zm.7 1.6c-.1 0-.1 0 0 0h-.1l-.1-.1v-.2c.1-.1.1-.1.2-.1h.1v.1c.1 0-.1.2-.1.3zm3.1.8c-.1.1-.2.1-.2.2s-.1.1-.1.1h-.4c-.2 0-.3-.1-.4-.3v-.1c0-.1.1-.1.2-.1h.1s.1-.1.2 0h.6l.2-.1c0 .1-.2.2-.2.3z"/></g><g fill="#DDDB04"><path d="M584.2 90.2H554c-10.1 0-18.5-3.6-25.1-10.7-6.6-7.1-9.9-16.1-9.9-26.9 0-10.8 3.3-19.4 9.8-26 6.6-6.6 15-9.9 25.2-9.9h30.2v12.8H554c-6.7 0-12.1 2.3-16.5 6.8-4.3 4.5-6.5 10.3-6.5 17.4 0 7 2.2 12.7 6.5 17.1 4.3 4.4 9.8 6.6 16.5 6.6h30.2v12.8zM736.5 65c6.4-1.1 11.1-3.8 14.2-7.4 4.1-4.7 5.7-10.2 5.7-15.7 0-8.1-3.9-15.3-9.4-19.5-4.8-3.7-11.2-5.5-19-5.5h-43.8v73.3h12V66.3h24.4l19.6 23.8h17.3l-21-25.1zm-40.3-11.1V29.4h33.5c9.6 0 14.5 4.1 14.5 12.3 0 4-1.5 7.2-4.6 9.3-2.7 1.9-6 2.8-9.9 2.8h-33.5zM768.1 90.6h60.1V77.8h-48V59.7H819V46.9h-38.8v-17h48V17.1h-60.1z"/></g></svg>